<!DOCTYPE svg PUBLIC "-//W3C//DTD SVG 20010904//EN" "http://www.w3.org/TR/2001/REC-SVG-20010904/DTD/svg10.dtd">
<svg version="1.0" xmlns="http://www.w3.org/2000/svg" width="221px" height="222px" viewBox="0 0 2210 2220" preserveAspectRatio="xMidYMid meet">
<g id="layer101" fill="#e0e0e0" stroke="none">
 <path d="M1834 2202 c-64 -22 -124 -70 -149 -116 l-20 -36 -146 0 c-80 0 -170 -5 -199 -10 -114 -22 -223 -95 -277 -187 -43 -73 -53 -134 -53 -318 0 -189 -9 -235 -50 -277 l-28 -28 -184 0 -183 1 -27 44 c-33 55 -102 100 -176 116 -145 30 -294 -61 -333 -204 -36 -135 38 -290 163 -341 125 -52 282 -7 346 99 l27 44 182 1 c179 0 182 0 211 -25 42 -35 52 -88 52 -282 0 -233 23 -308 123 -400 95 -87 184 -112 402 -113 l150 -1 28 -44 c52 -82 174 -136 271 -121 142 23 235 122 244 261 8 131 -45 228 -154 281 -74 36 -176 38 -246 5 -49 -24 -124 -92 -134 -123 -5 -16 -20 -18 -167 -18 -149 0 -165 2 -201 23 -74 41 -80 63 -87 307 -3 118 -9 223 -13 233 -8 16 7 17 225 17 l234 -1 25 -41 c75 -123 263 -161 392 -79 85 54 127 132 128 236 0 79 -14 125 -53 177 -118 154 -364 150 -464 -7 l-28 -44 -234 -1 c-218 0 -233 1 -225 18 4 9 10 114 13 232 7 238 12 258 73 302 31 22 44 23 205 26 164 3 172 2 178 -17 11 -37 110 -117 162 -132 156 -44 312 31 359 174 20 61 15 176 -10 224 -66 129 -221 192 -352 145z m175 -140 c98 -72 94 -206 -8 -266 -104 -61 -242 29 -228 150 12 113 149 181 236 116z m-1663 -811 c135 -61 120 -248 -24 -291 -35 -11 -48 -11 -87 4 -67 26 -100 74 -100 145 0 69 29 115 89 142 51 23 71 23 122 0z m1644 -3 c123 -62 122 -215 -2 -276 -75 -38 -159 -9 -198 67 -26 52 -25 96 3 146 23 41 91 85 132 85 11 0 41 -10 65 -22z m0 -820 c58 -30 90 -78 90 -135 0 -79 -54 -145 -130 -158 -85 -14 -179 66 -180 153 0 66 51 132 119 152 41 13 54 11 101 -12z"/>
 </g>

</svg>