<!DOCTYPE svg PUBLIC "-//W3C//DTD SVG 20010904//EN" "http://www.w3.org/TR/2001/REC-SVG-20010904/DTD/svg10.dtd">
<svg version="1.0" xmlns="http://www.w3.org/2000/svg" width="72px" height="72px" viewBox="0 0 720 720" preserveAspectRatio="xMidYMid meet">
<g id="layer101" fill="#222222" stroke="none">
 <path d="M270 706 c-106 -30 -192 -102 -236 -199 -24 -53 -28 -75 -28 -147 -1 -72 4 -94 27 -145 52 -112 144 -183 265 -205 163 -29 318 54 390 208 38 81 38 202 0 283 -76 165 -252 251 -418 205z"/>
 </g>
<g id="layer102" fill="#919191" stroke="none">
 <path d="M247 534 c-4 -4 -7 -13 -7 -21 0 -10 28 -13 130 -13 l130 0 0 -85 0 -85 -31 0 c-24 0 -30 -4 -27 -17 3 -14 13 -18 48 -18 l45 0 0 120 0 120 -141 3 c-77 1 -143 -1 -147 -4z"/>
 <path d="M197 483 c-4 -3 -7 -68 -7 -143 0 -106 3 -140 14 -149 9 -8 50 -11 117 -9 l104 3 3 153 3 152 -114 0 c-63 0 -117 -3 -120 -7z m203 -148 l0 -115 -85 0 -85 0 0 115 0 115 85 0 85 0 0 -115z"/>
 </g>
<g id="layer103" fill="#f3f3f3" stroke="none">
 <path d="M253 533 c-7 -2 -13 -11 -13 -19 0 -11 25 -14 130 -14 l130 0 0 -85 c0 -84 0 -85 -25 -85 -16 0 -25 -6 -25 -15 0 -11 12 -15 45 -15 l45 0 0 114 c0 95 -3 115 -16 120 -19 7 -253 7 -271 -1z"/>
 <path d="M194 477 c-2 -7 -3 -74 -2 -148 l3 -134 118 -3 117 -3 0 151 0 150 -115 0 c-86 0 -117 -3 -121 -13z m206 -142 l0 -115 -90 0 -90 0 0 115 0 115 90 0 90 0 0 -115z"/>
 </g>

</svg>