<!DOCTYPE svg PUBLIC "-//W3C//DTD SVG 20010904//EN" "http://www.w3.org/TR/2001/REC-SVG-20010904/DTD/svg10.dtd">
<svg version="1.0" xmlns="http://www.w3.org/2000/svg" width="72px" height="72px" viewBox="0 0 720 720" preserveAspectRatio="xMidYMid meet">
<g id="layer101" fill="#222222" stroke="none">
 <path d="M258 701 c-137 -44 -221 -138 -248 -279 -30 -148 50 -311 184 -377 191 -93 405 -19 493 170 23 51 28 73 27 145 0 107 -32 187 -104 254 -103 96 -226 127 -352 87z m190 -233 c7 -7 12 -20 12 -30 0 -17 6 -15 45 12 l45 31 0 -116 c0 -63 -2 -115 -6 -115 -3 0 -22 11 -42 25 -33 23 -37 24 -41 8 -7 -39 -20 -43 -140 -43 -64 0 -123 5 -131 10 -19 12 -27 161 -11 203 l11 27 123 0 c82 0 127 -4 135 -12z"/>
 </g>
<g id="layer102" fill="#fefefe" stroke="none">
 <path d="M179 453 c-16 -42 -8 -191 11 -203 8 -5 67 -10 131 -10 120 0 133 4 140 43 4 16 8 15 41 -8 20 -14 39 -25 42 -25 4 0 6 52 6 115 l0 116 -45 -31 c-39 -27 -45 -29 -45 -12 0 36 -20 42 -147 42 l-123 0 -11 -27z"/>
 </g>

</svg>