<!DOCTYPE svg PUBLIC "-//W3C//DTD SVG 20010904//EN" "http://www.w3.org/TR/2001/REC-SVG-20010904/DTD/svg10.dtd">
<svg version="1.0" xmlns="http://www.w3.org/2000/svg" width="72px" height="71px" viewBox="0 0 720 710" preserveAspectRatio="xMidYMid meet">
<g id="layer101" fill="#222222" stroke="none">
 <path d="M257 696 c-112 -31 -208 -131 -243 -250 -45 -159 36 -340 185 -413 50 -25 67 -28 161 -28 95 0 111 3 162 28 71 35 141 112 170 187 32 84 30 197 -6 276 -72 159 -261 248 -429 200z m137 -142 c12 -5 16 -20 16 -59 0 -42 4 -55 21 -66 16 -11 22 -28 26 -75 l6 -62 -52 -7 c-28 -4 -74 -4 -102 0 l-52 7 7 62 c4 45 11 65 26 75 16 11 20 25 20 66 0 33 5 55 13 58 18 8 53 8 71 1z m10 -306 c53 -48 25 -128 -44 -128 -67 0 -96 88 -44 129 34 27 57 26 88 -1z"/>
 </g>
<g id="layer102" fill="#fdfdfd" stroke="none">
 <path d="M323 553 c-8 -3 -13 -25 -13 -58 0 -41 -4 -55 -20 -66 -15 -10 -22 -30 -26 -75 l-7 -62 52 -7 c28 -4 74 -4 102 0 l52 7 -6 62 c-4 47 -10 64 -26 75 -17 11 -21 24 -21 66 0 39 -4 54 -16 59 -18 7 -53 7 -71 -1z"/>
 <path d="M316 249 c-52 -41 -23 -129 44 -129 69 0 97 80 44 128 -31 27 -54 28 -88 1z"/>
 </g>

</svg>