<!DOCTYPE svg PUBLIC "-//W3C//DTD SVG 20010904//EN" "http://www.w3.org/TR/2001/REC-SVG-20010904/DTD/svg10.dtd">
<svg version="1.0" xmlns="http://www.w3.org/2000/svg" width="72px" height="72px" viewBox="0 0 720 720" preserveAspectRatio="xMidYMid meet">
<g id="layer101" fill="#222222" stroke="none">
 <path d="M265 706 c-106 -34 -187 -103 -229 -196 -97 -218 29 -457 266 -500 112 -21 235 19 315 102 153 158 127 424 -53 543 -93 62 -205 81 -299 51z"/>
 </g>
<g id="layer102" fill="#5e5e5e" stroke="none">
 <path d="M218 489 c-15 -8 -18 -26 -18 -114 0 -115 5 -125 68 -125 21 0 31 -6 35 -20 4 -17 14 -20 66 -20 54 0 61 2 61 19 0 17 8 20 48 23 l47 3 3 114 c2 85 -1 117 -10 123 -19 11 -280 9 -300 -3z m206 -50 c21 -16 26 -29 26 -62 0 -48 -6 -59 -37 -76 -62 -32 -133 7 -133 74 0 74 84 111 144 64z"/>
 <path d="M342 430 c-12 -5 -27 -21 -34 -35 -23 -50 50 -106 94 -73 29 21 34 72 9 97 -23 23 -34 25 -69 11z m38 -55 c0 -8 -7 -15 -15 -15 -8 0 -15 7 -15 15 0 8 7 15 15 15 8 0 15 -7 15 -15z"/>
 </g>
<g id="layer103" fill="#f8f8f8" stroke="none">
 <path d="M220 490 c-12 -7 -15 -32 -15 -115 0 -117 4 -125 63 -125 25 0 35 -5 39 -20 5 -17 14 -20 60 -20 46 0 56 3 60 20 4 14 14 20 35 20 62 0 68 10 68 123 0 67 -4 107 -12 115 -15 15 -275 17 -298 2z m214 -61 c41 -49 29 -106 -30 -134 -61 -29 -124 12 -124 82 0 80 102 114 154 52z m-41 -196 c-13 -2 -33 -2 -45 0 -13 2 -3 4 22 4 25 0 35 -2 23 -4z"/>
 <path d="M338 426 c-34 -17 -33 -85 1 -102 30 -16 62 -4 80 28 13 23 13 29 -1 51 -20 30 -49 38 -80 23z m45 -51 c1 -5 -6 -11 -15 -13 -11 -2 -18 3 -18 13 0 17 30 18 33 0z"/>
 </g>

</svg>