<!DOCTYPE svg PUBLIC "-//W3C//DTD SVG 20010904//EN" "http://www.w3.org/TR/2001/REC-SVG-20010904/DTD/svg10.dtd">
<svg version="1.0" xmlns="http://www.w3.org/2000/svg" width="72px" height="71px" viewBox="0 0 720 710" preserveAspectRatio="xMidYMid meet">
<g id="layer101" fill="#222222" stroke="none">
 <path d="M265 697 c-111 -37 -182 -97 -226 -191 -84 -177 -13 -389 160 -473 50 -25 67 -28 161 -28 94 0 111 3 161 28 148 72 226 245 185 405 -40 157 -168 261 -331 269 -41 1 -87 -3 -110 -10z"/>
 </g>
<g id="layer102" fill="#5b5b5b" stroke="none">
 <path d="M170 374 c0 -81 5 -154 10 -165 10 -18 23 -19 183 -19 121 0 177 4 185 12 8 8 12 59 12 165 l0 153 -195 0 -195 0 0 -146z m360 6 l0 -110 -160 0 -160 0 0 110 0 110 160 0 160 0 0 -110z"/>
 </g>
<g id="layer103" fill="#929292" stroke="none">
 <path d="M182 358 l3 -163 180 0 180 0 3 163 2 162 -185 0 -185 0 2 -162z m348 22 l0 -110 -165 0 -165 0 0 110 0 110 165 0 165 0 0 -110z m-285 -150 c0 -7 -6 -15 -12 -17 -8 -3 -13 4 -13 17 0 13 5 20 13 18 6 -3 12 -11 12 -18z m58 5 c8 -18 -11 -31 -25 -17 -11 11 -3 32 12 32 4 0 10 -7 13 -15z m57 -11 c0 -16 -16 -19 -25 -4 -8 13 4 32 16 25 5 -4 9 -13 9 -21z"/>
 </g>
<g id="layer104" fill="#fafafa" stroke="none">
 <path d="M180 367 c0 -106 4 -157 12 -165 17 -17 329 -17 346 0 8 8 12 59 12 165 l0 153 -185 0 -185 0 0 -153z m350 18 l0 -115 -165 0 -165 0 0 115 0 115 165 0 165 0 0 -115z m-284 -146 c10 -17 -13 -36 -27 -22 -12 12 -4 33 11 33 5 0 12 -5 16 -11z m60 0 c10 -17 -13 -36 -27 -22 -12 12 -4 33 11 33 5 0 12 -5 16 -11z m60 0 c10 -17 -13 -36 -27 -22 -12 12 -4 33 11 33 5 0 12 -5 16 -11z"/>
 </g>

</svg>