<!DOCTYPE svg PUBLIC "-//W3C//DTD SVG 20010904//EN" "http://www.w3.org/TR/2001/REC-SVG-20010904/DTD/svg10.dtd">
<svg version="1.0" xmlns="http://www.w3.org/2000/svg" width="140px" height="29px" viewBox="0 0 1400 290" preserveAspectRatio="xMidYMid meet">
<g id="layer101" fill="#ffffff" stroke="none">
 <path d="M120 245 c0 -25 2 -45 5 -45 4 0 20 7 37 16 l30 16 -28 29 c-15 16 -31 29 -36 29 -4 0 -8 -20 -8 -45z"/>
 <path d="M225 235 c-22 -14 -44 -27 -50 -29 -5 -2 17 -31 50 -65 33 -33 56 -61 52 -61 -4 0 -38 23 -74 50 -36 28 -72 50 -79 50 -20 0 -124 -42 -124 -50 0 -11 344 -130 351 -122 5 6 -15 106 -46 230 -7 28 -30 28 -80 -3z"/>
 <path d="M450 150 l0 -90 66 0 c62 0 65 1 62 23 -2 17 -11 23 -43 28 -38 5 -38 5 -10 10 22 3 31 10 33 27 3 18 -1 22 -22 22 -14 0 -26 5 -26 10 0 6 16 10 36 10 31 0 35 3 32 23 -3 20 -9 22 -65 25 l-63 3 0 -91z"/>
 <path d="M616 224 c-24 -23 -20 -54 6 -54 l22 0 -22 -20 c-27 -26 -28 -54 -2 -80 26 -26 74 -26 100 0 24 24 26 50 5 50 -8 0 -15 4 -15 9 0 5 7 14 15 21 20 17 19 53 -3 73 -23 21 -86 22 -106 1z"/>
 <path d="M780 221 c-5 -11 -10 -45 -10 -75 0 -43 5 -61 20 -76 36 -36 100 -21 114 27 9 29 -28 42 -53 18 -17 -15 -19 -15 -25 0 -16 42 4 97 24 65 4 -6 18 -10 31 -8 18 2 23 8 21 23 -6 34 -23 45 -68 45 -33 0 -46 -5 -54 -19z"/>
 <path d="M940 155 c0 -73 3 -86 19 -95 31 -16 69 -12 91 10 18 18 20 31 18 93 -3 67 -5 72 -26 75 -17 3 -25 -2 -29 -17 -7 -27 -23 -27 -23 -1 0 15 -7 20 -25 20 -25 0 -25 -1 -25 -85z m70 -25 c0 -11 -4 -20 -10 -20 -5 0 -10 9 -10 20 0 11 5 20 10 20 6 0 10 -9 10 -20z"/>
 <path d="M1110 150 l0 -90 53 0 c63 0 77 11 77 61 0 40 -11 53 -52 63 -21 5 -28 12 -28 31 0 20 -5 25 -25 25 -25 0 -25 -1 -25 -90z m80 -30 c0 -5 -7 -10 -15 -10 -8 0 -15 5 -15 10 0 6 7 10 15 10 8 0 15 -4 15 -10z"/>
 <path d="M1270 150 l0 -90 65 0 c63 0 65 1 65 25 0 22 -4 25 -37 26 -33 1 -34 2 -13 8 15 4 26 15 28 29 3 18 -2 22 -22 22 -14 0 -26 5 -26 10 0 6 16 10 35 10 31 0 35 3 35 25 0 24 -2 25 -65 25 l-65 0 0 -90z"/>
 </g>

</svg>