<!DOCTYPE svg PUBLIC "-//W3C//DTD SVG 20010904//EN" "http://www.w3.org/TR/2001/REC-SVG-20010904/DTD/svg10.dtd">
<svg version="1.0" xmlns="http://www.w3.org/2000/svg" width="542px" height="392px" viewBox="0 0 5420 3920" preserveAspectRatio="xMidYMid meet">
<g id="layer101" fill="#e0e0e0" stroke="none">
 <path d="M156 3910 c-47 -15 -101 -58 -127 -103 -21 -36 -24 -54 -23 -132 1 -111 29 -190 108 -309 190 -285 687 -587 1302 -792 232 -78 239 -76 451 104 69 59 152 128 183 154 l57 47 184 -155 c273 -232 265 -230 502 -151 614 205 1115 511 1304 795 75 113 123 275 109 365 -14 84 -75 154 -157 177 -43 13 -3852 12 -3893 0z m3419 -456 c-82 -68 -231 -156 -430 -254 -201 -99 -431 -197 -474 -203 -10 -1 -106 74 -227 176 -115 98 -221 185 -236 193 -42 22 -112 28 -163 14 -45 -12 -97 -53 -392 -304 l-103 -88 -142 57 c-281 111 -647 305 -773 409 l-30 25 1500 0 1500 0 -30 -25z"/>
 <path d="M4384 3496 c-90 -40 -120 -172 -57 -254 45 -60 60 -62 395 -62 l302 0 -64 -66 c-75 -76 -215 -183 -315 -242 -38 -22 -88 -51 -111 -65 -132 -78 -82 -290 73 -304 41 -4 58 0 123 34 286 148 549 387 635 576 83 180 71 328 -30 377 -39 19 -61 20 -481 20 -345 -1 -446 -4 -470 -14z"/>
 <path d="M3712 2555 c-190 -43 -415 -192 -442 -293 -21 -79 14 -157 86 -192 74 -37 128 -25 211 46 101 86 201 124 329 124 210 0 401 -143 464 -348 69 -221 -42 -472 -253 -575 -128 -63 -230 -70 -367 -28 -77 25 -140 27 -180 6 -67 -35 -104 -127 -80 -199 21 -64 57 -91 166 -125 472 -145 947 134 1049 615 20 92 19 258 -1 346 -37 163 -117 303 -241 418 -93 86 -182 141 -299 182 -81 28 -102 31 -234 34 -99 2 -165 -1 -208 -11z"/>
 <path d="M1890 2476 c-385 -69 -718 -315 -895 -662 -92 -179 -135 -365 -135 -576 0 -276 82 -519 251 -744 183 -244 435 -403 744 -471 107 -23 321 -28 440 -10 494 76 891 437 1017 925 39 152 49 367 24 509 -75 432 -358 789 -754 952 -148 61 -260 83 -447 87 -112 2 -195 -1 -245 -10z m445 -456 c125 -38 252 -116 346 -211 223 -225 291 -573 169 -869 -96 -233 -298 -409 -545 -476 -98 -26 -302 -26 -400 0 -356 96 -605 412 -605 768 0 236 80 430 246 593 202 199 519 277 789 195z"/>
 </g>

</svg>